<?xml version="1.0" encoding="utf-8"?>
<!-- Generator: Adobe Illustrator 21.1.0, SVG Export Plug-In . SVG Version: 6.00 Build 0)  -->
<svg version="1.1" xmlns="http://www.w3.org/2000/svg" xmlns:xlink="http://www.w3.org/1999/xlink" x="0px" y="0px"
	 viewBox="0 0 310 308" style="enable-background:new 0 0 310 308;" xml:space="preserve">
<style type="text/css">
	.st0{opacity:0.5;fill:none;stroke:#F05B89;stroke-width:3;stroke-miterlimit:10;}
</style>
<g id="Layer_1_copy_6">
	<path class="st0" d="M176.1,200.7c-23.9,13.8-54.5,5.6-68.3-18.3s-5.6-54.5,18.3-68.3S275,85.9,275,85.9S200,186.9,176.1,200.7z"/>
</g>
<g id="Layer_1_copy_7">
	<path class="st0" d="M175.3,114.2c23.9,13.8,32.2,44.4,18.4,68.3c-13.8,23.9-44.4,32.2-68.3,18.4c-23.9-13.8-99-114.7-99-114.7
		S151.4,100.4,175.3,114.2z"/>
</g>
<g id="Layer_1_copy_8">
	<path class="st0" d="M100.4,157.2c0-27.6,22.4-50,50-50s50,22.4,50,50c0,27.6-50,143-50,143S100.4,184.8,100.4,157.2z"/>
</g>
<g id="Layer_1_copy_9">
	<path class="st0" d="M125.3,113.9c23.9-13.8,54.5-5.6,68.3,18.3s5.6,54.5-18.3,68.3c-23.9,13.8-148.8,28.3-148.8,28.3
		S101.4,127.7,125.3,113.9z"/>
</g>
<g id="Layer_1_copy_10">
	<path class="st0" d="M126.1,200.5c-23.9-13.8-32.1-44.4-18.3-68.3s44.4-32.1,68.3-18.3C200,127.7,275,228.7,275,228.7
		S150,214.3,126.1,200.5z"/>
</g>
<g id="Layer_1_copy_11">
	<path class="st0" d="M200.4,157.2c0,27.6-22.4,50-50,50s-50-22.4-50-50c0-27.6,50-143,50-143S200.4,129.6,200.4,157.2z"/>
</g>
</svg>
